<svg xmlns="http://www.w3.org/2000/svg" viewBox="0 0 420 512"><defs><style>.cls-1{fill:#fff;}.cls-2{fill:#8addad;}.cls-3{fill:#6cd89d;}.cls-4{fill:#01813f;}</style></defs><title>document@300x-8</title><g id="Layer_2" data-name="Layer 2"><g id="Layer_1-2" data-name="Layer 1"><path class="cls-1" d="M150,250H370V10H50V210h80a20.06,20.06,0,0,1,20,20Z"/><path class="cls-2" d="M370,250H150V230a20.06,20.06,0,0,0-20-20H30a20.06,20.06,0,0,0-20,20V482a20.06,20.06,0,0,0,20,20H390a20.06,20.06,0,0,0,20-20V270a20.06,20.06,0,0,0-20-20Z"/><path class="cls-3" d="M110,100a10,10,0,0,1,0-20H210a10,10,0,0,1,0,20Z"/><path class="cls-3" d="M110,140a10,10,0,1,1,0-20H310a10,10,0,0,1,0,20Z"/><path class="cls-3" d="M110,180a10,10,0,0,1,0-20H310a10,10,0,0,1,0,20Z"/><path class="cls-3" d="M210,220a10,10,0,0,1,0-20H310a10,10,0,0,1,0,20Z"/><path class="cls-1" d="M370,452a10,10,0,0,1,0,20H310a10,10,0,0,1,0-20Z"/><path class="cls-1" d="M370,412a10,10,0,0,1,0,20H310a10,10,0,0,1,0-20Z"/><path class="cls-1" d="M370,372a10,10,0,0,1,0,20H310a10,10,0,0,1,0-20Z"/><path class="cls-4" d="M390,240H380V10A10,10,0,0,0,370,0H50A10,10,0,0,0,40,10V200H30A30,30,0,0,0,0,230V482a30,30,0,0,0,30,30H390a30,30,0,0,0,30-30V270A30,30,0,0,0,390,240ZM60,20H360V240H160V230a30,30,0,0,0-30-30H60ZM400,482a10,10,0,0,1-10,10H30a10,10,0,0,1-10-10V230a10,10,0,0,1,10-10H130a10,10,0,0,1,10,10v20a10,10,0,0,0,10,10H390a10,10,0,0,1,10,10Z"/></g></g></svg>