<svg width="266" height="42" viewBox="0 0 266 42" fill="none" xmlns="http://www.w3.org/2000/svg">
<path d="M39.5372 26.0584C39.6602 30.1051 38 32.0058 36.2168 33.1095C33.8188 34.581 30.8058 34.581 30.8058 34.581C30.8058 34.581 32.1586 33.5387 31.1133 32.619C30.4369 32.1285 29.6375 32.4963 28.7152 32.8029C27.8544 33.0482 26.3786 32.8029 25.6408 32.5577C24.5955 32.1898 23.2427 31.5766 22.2589 29.8599C22.0744 29.5533 22.0744 29.492 22.0129 29.5533C21.9515 29.5533 22.0129 29.5533 22.0129 29.9212C22.1974 31.2088 22.9968 32.4964 23.9191 33.2321C25.4563 34.3971 26.6246 34.5197 26.8706 34.5197C26.6246 34.5197 25.3948 34.5197 24.3495 34.7036C23.5502 34.8263 22.9968 35.5007 22.9968 35.5007C22.9968 35.5007 23.5502 36.3591 24.8414 36.4818C26.1327 36.6044 27.2395 36.3591 27.2395 36.3591C27.2395 36.3591 25.2718 36.8496 23.7346 37.8307C22.3204 38.7504 21.0291 39.9153 20.5987 40.6511C20.1068 39.9766 18.877 38.7504 17.4628 37.8307C15.9256 36.8496 13.9579 36.3591 13.9579 36.3591C13.9579 36.3591 15.0647 36.6044 16.356 36.4818C17.6473 36.3591 18.2006 35.5007 18.2006 35.5007C18.2006 35.5007 17.6472 34.8876 16.8479 34.7036C15.8026 34.5197 14.5728 34.5197 14.3269 34.5197C14.5728 34.5197 15.7411 34.3971 17.2783 33.2321C18.2006 32.4964 19 31.2088 19.1845 29.9212C19.246 29.5533 19.246 29.5533 19.1845 29.5533C19.123 29.5533 19.123 29.6146 18.9385 29.8599C18.0162 31.5766 16.6634 32.1285 15.5566 32.5577C14.8188 32.8029 13.4045 33.0482 12.4822 32.8029C11.6214 32.4963 10.7605 32.1898 10.0841 32.619C9.03884 33.4774 10.3916 34.581 10.3916 34.581C10.3916 34.581 7.37864 34.581 4.98058 33.1095C3.19741 32.0058 1.47573 30.1051 1.66019 26.0584C1.90615 22.0117 5.65696 17.1679 9.89968 12.9372C13.9579 8.89051 20.1068 2.45255 20.5987 1.90073C21.0906 2.45255 27.2395 8.8292 31.2977 12.9372C35.6019 17.1679 39.3528 22.0117 39.5372 26.0584ZM41.2589 26.5489C41.2589 21.7051 36.8932 16.6774 35.2945 15.0219C33.7573 13.3664 20.6602 0 20.5987 0C20.5987 0 7.44013 13.3664 5.90291 15.0219C4.3657 16.6774 0 21.7051 0 26.5489C0 31.5153 2.1521 33.2934 4.05825 34.3971C6.39482 35.746 10.4531 35.6234 10.4531 35.6234C10.4531 35.6234 9.71521 36.4204 10.1456 37.0949C11.068 38.5664 14.7573 37.9533 17.5243 39.4861C19.7994 40.7737 20.5987 42 20.5987 42C20.5987 42 21.3981 40.7737 23.6731 39.4861C26.5016 37.9533 30.1295 38.5051 31.0518 37.0949C31.4822 36.3591 30.7443 35.6234 30.7443 35.6234C30.7443 35.6234 34.8026 35.8073 37.1392 34.3971C39.1068 33.2934 41.2589 31.5153 41.2589 26.5489Z" fill="#CCA25E"/>
<path d="M20.6602 39.8541C20.6602 39.8541 20.5987 39.8541 20.6602 39.8541C20.5987 39.8541 20.5987 39.8541 20.6602 39.8541ZM36.6472 27.7139C36.6472 29.5533 35.479 30.1665 34.2492 30.2278C33.7573 30.2278 33.3883 30.1665 33.2654 30.1665C33.2654 30.1665 34.2492 29.6147 33.6958 28.4497C33.4498 27.8979 32.589 27.53 32.589 27.53C32.589 27.53 32.9579 28.4497 32.2201 29.0015C31.6667 29.3081 30.4984 29.3694 29.945 28.511C29.1456 27.2847 29.945 25.6906 30.0065 25.5679C30.1909 26.0584 30.5599 26.6716 31.3592 26.7942C32.343 26.9168 32.7735 26.0584 32.589 25.4453C32.343 24.6482 31.6667 24.5256 31.1133 24.403C31.6052 24.219 32.9579 24.0351 33.7573 24.2803C35.479 24.7095 36.6472 25.8745 36.6472 27.7139ZM11.3139 28.511C10.7605 29.3694 9.59223 29.3694 9.03883 29.0015C8.30097 28.4497 8.6699 27.53 8.6699 27.53C8.6699 27.53 7.80906 27.8979 7.5631 28.4497C7.0097 29.6147 7.99352 30.1665 7.99352 30.1665C7.87054 30.1665 7.50161 30.2891 7.0097 30.2278C5.77993 30.1665 4.61165 29.492 4.61165 27.7139C4.61165 25.8745 5.84142 24.7095 7.50161 24.219C8.30097 23.9738 9.7152 24.0964 10.1456 24.3417C9.59223 24.4643 8.91585 24.5869 8.6699 25.384C8.48543 25.9971 8.85436 26.8555 9.89967 26.7329C10.699 26.6103 11.068 25.9971 11.2524 25.5066C11.3139 25.6292 12.1133 27.2847 11.3139 28.511ZM37.2621 22.9928C37.6925 21.8278 36.8932 21.276 36.0324 21.3373C35.233 21.3986 34.1262 22.5022 34.1262 22.5022C34.1262 22.5022 35.233 20.0497 34.0032 18.7008C33.0809 17.7198 32.1586 17.7811 31.2977 17.9037C29.945 18.0263 29.3301 19.13 29.3301 19.9271C29.3301 20.7855 30.068 21.4599 30.8673 21.3373C31.2977 21.276 31.8511 21.0307 31.9126 20.2336C31.9741 19.6818 31.7281 19.4365 31.4207 19.2526C32.0356 18.8847 33.2039 19.4979 33.1424 20.4789C33.0809 21.276 32.466 22.4409 30.9903 22.5022C29.5146 22.5636 28.0388 21.5825 27.301 21.2147C26.5631 20.9081 24.9644 20.6015 23.7961 21.2147C23.7346 21.276 23.2427 21.4599 22.5663 22.0117C22.9968 21.3986 23.4887 20.3563 22.6893 19.13C22.0744 18.2103 22.3204 17.1066 22.4434 16.8001C22.9353 15.819 23.6116 15.5125 24.411 15.5125C25.6408 15.5125 26.1942 16.1256 26.3171 16.9227C26.3171 17.1066 26.2557 18.0876 25.5793 18.2716C24.2265 18.5782 24.0421 17.1679 23.9806 17.2293C23.6731 17.5971 23.8576 18.5782 24.0421 18.8847C24.4725 19.5592 25.0874 19.8044 25.6408 19.8044C26.0712 19.8044 26.932 19.7431 27.4239 19.1913C27.6084 19.0074 27.8544 18.7621 27.9773 18.0876C28.2233 17.1066 27.9158 16.4322 27.6699 16.0643C27.9773 16.3709 28.7152 16.8001 30.3139 16.9227C31.9126 17.0453 33.2654 15.9417 33.2654 15.9417C33.2654 15.9417 32.0971 15.819 31.4207 15.4511C30.0065 14.7154 29.7605 13.9796 29.2686 13.3052C28.4078 12.1402 27.1165 11.9563 26.2557 12.5694C25.3948 13.1212 25.8252 14.4088 25.8252 14.4088C25.8252 14.4088 25.0874 13.857 23.8576 14.0409C22.0129 14.3475 21.521 16.3095 21.521 16.3095C21.521 16.3095 21.644 13.3665 23.0582 12.0176C24.8414 10.2395 26.7476 11.0365 26.7476 11.0365C26.7476 11.0365 26.1327 9.62633 25.0259 9.25845C23.8576 8.82925 22.6893 9.25845 21.644 11.0979C22.0129 9.62633 22.7508 8.70662 22.6893 7.05115C22.6278 5.5183 20.8447 3.49494 20.7217 3.37231C20.5987 3.49494 18.8155 5.5183 18.754 7.05115C18.6925 8.64531 19.4304 9.62633 19.7993 11.0979C18.754 9.25845 17.5858 8.82925 16.4175 9.25845C15.3107 9.62633 14.6958 11.0365 14.6958 11.0365C14.6958 11.0365 16.6019 10.1782 18.3851 12.0176C19.7993 13.4278 19.9223 16.3095 19.9223 16.3095C19.9223 16.3095 19.4304 14.3475 17.5858 14.0409C16.356 13.857 15.6181 14.4088 15.6181 14.4088C15.6181 14.4088 16.0485 13.1825 15.1877 12.5694C14.3269 12.0176 13.0356 12.2015 12.1748 13.3052C11.6828 13.9796 11.3754 14.7154 10.0226 15.4511C9.34627 15.819 8.17799 15.9417 8.17799 15.9417C8.17799 15.9417 9.46925 16.984 11.1294 16.9227C12.7281 16.8001 13.4045 16.3709 13.7735 16.0643C13.5275 16.4322 13.2201 17.1066 13.466 18.0876C13.6505 18.7008 13.8349 18.946 14.0194 19.1913C14.5728 19.7431 15.4337 19.8044 15.8026 19.8044C16.356 19.8044 16.9709 19.5592 17.4013 18.8847C17.5858 18.5782 17.7702 17.6584 17.4628 17.2293C17.4013 17.1066 17.2168 18.5782 15.8641 18.2716C15.1262 18.0876 15.0647 17.1066 15.1262 16.9227C15.2492 16.1256 15.8026 15.5125 17.0324 15.5125C17.8317 15.5125 18.5696 15.819 19 16.8001C19.123 17.1066 19.4304 18.2103 18.754 19.13C17.8932 20.3563 18.3851 21.3986 18.877 22.0117C18.2006 21.3986 17.7087 21.2147 17.6472 21.2147C16.479 20.6015 14.8188 20.9081 14.1424 21.2147C13.343 21.5825 11.8673 22.5022 10.4531 22.5022C8.97734 22.4409 8.36245 21.276 8.30097 20.4789C8.23948 19.4979 9.40776 18.8847 10.0226 19.2526C9.7152 19.3752 9.46925 19.6818 9.53074 20.2336C9.59223 20.9694 10.1456 21.276 10.576 21.3373C11.3754 21.4599 12.1133 20.7241 12.1133 19.9271C12.1133 19.0687 11.4984 18.0263 10.1456 17.9037C9.2233 17.8424 8.30097 17.7198 7.44012 18.7008C6.21035 20.0497 7.31715 22.5022 7.31715 22.5022C7.31715 22.5022 6.21035 21.3986 5.411 21.3373C4.55016 21.276 3.7508 21.8278 4.18123 22.9928C4.55016 24.0351 6.39482 23.8511 6.39482 23.8511C6.39482 23.8511 3.19741 24.8322 3.32038 27.7139C3.44336 31.0862 6.21035 32.3125 8.60841 32.7417C8.60841 32.7417 8.30097 32.1285 8.48543 31.6993C8.73139 31.2088 9.2233 30.9636 9.53074 30.8409C10.0226 30.657 11.0065 30.7796 11.3754 30.657C11.9288 30.473 12.3592 29.676 12.3592 29.676C12.2977 29.9825 12.2977 30.4117 12.2977 30.657C12.2977 31.4541 12.5437 32.0672 13.4045 32.0672C14.2039 32.0672 14.6343 31.4541 14.5728 30.8409C14.5113 30.2278 13.589 29.3081 13.589 29.3081C13.589 29.3081 14.8803 30.657 16.8479 29.3081C17.8317 28.511 18.0162 27.6526 18.0162 26.7329C18.0162 25.8132 17.2783 24.8935 16.7864 24.5256C16.2945 24.219 15.6796 24.1577 15.2492 24.219C14.5728 24.403 14.1424 24.8322 14.1424 25.5066C14.1424 26.1811 14.5728 26.6716 15.2492 26.7329C16.4175 26.7329 16.479 25.6293 16.479 25.6293C16.479 25.6293 17.1553 28.3884 14.8188 28.1431C13.343 28.0205 12.9126 26.9782 12.7896 25.8132C12.6667 24.6482 13.5275 22.9314 15.4337 22.8701C17.2783 22.8088 17.7087 23.7898 18.3851 24.5256C18.5696 24.7095 19 24.9548 19.2459 24.9548C19.9838 24.8935 19.7993 23.9738 20.1068 24.1577C20.8447 24.5869 19.4304 26.4263 19.7993 27.53C19.8608 27.6526 20.4757 28.0205 20.4757 28.2657C20.4757 29.676 20.3527 31.9446 19.9223 32.619C19.6149 33.1709 18.877 34.0293 18.9385 35.0103C18.9385 36.6657 20.4142 36.2979 20.4142 36.911C20.4142 37.2789 19.5534 38.2599 19.5534 38.2599C19.5534 38.2599 20.5987 39.4862 20.9061 40.038C21.2136 39.4862 22.2589 38.2599 22.2589 38.2599C22.2589 38.2599 21.3366 37.3402 21.3981 36.911C21.3981 36.2979 22.8738 36.6657 22.8738 35.0103C22.8738 34.0293 22.1359 33.1709 21.89 32.619C21.4595 31.9446 21.3366 29.676 21.3366 28.2657C21.3366 28.0818 21.9514 27.7139 22.0129 27.53C22.4434 26.4263 20.9676 24.5256 21.7055 24.1577C21.9514 24.0351 21.767 24.9548 22.5663 24.9548C22.8123 24.9548 23.2427 24.7095 23.4272 24.5256C24.0421 23.8511 24.534 22.8088 26.3786 22.8701C28.2848 22.9314 29.1456 24.6482 29.0226 25.8132C28.8997 27.0395 28.4692 28.0205 26.9935 28.1431C24.657 28.3884 25.3333 25.6293 25.3333 25.6293C25.3333 25.6293 25.3948 26.7329 26.5631 26.7329C27.2395 26.7329 27.6699 26.2424 27.6699 25.5066C27.6699 24.8322 27.2395 24.403 26.5631 24.219C26.1327 24.0964 25.5178 24.1577 25.0259 24.5256C24.4725 24.8935 23.7961 25.8132 23.7961 26.7329C23.7961 27.6526 23.9806 28.511 24.9644 29.3081C26.932 30.657 28.2233 29.3081 28.2233 29.3081C28.2233 29.3081 27.301 30.2278 27.301 30.8409C27.2395 31.4541 27.6699 32.0672 28.4692 32.0672C29.2686 32.0672 29.576 31.4541 29.576 30.657C29.576 30.473 29.576 30.0439 29.5146 29.676C29.5146 29.676 29.945 30.473 30.4984 30.657C30.8673 30.7796 31.8511 30.657 32.343 30.8409C32.6505 30.9636 33.1424 31.2088 33.3883 31.6993C33.5728 32.1285 33.2654 32.7417 33.2654 32.7417C35.6634 32.3125 38.4304 31.0862 38.5534 27.7139C38.6764 24.8322 35.479 23.8511 35.479 23.8511C35.479 23.8511 36.8932 24.0964 37.2621 22.9928Z" fill="#00803D"/>
<path d="M46.9159 11.9563C48.4531 11.711 50.3592 11.5884 52.3884 11.5884C55.8932 11.5884 58.3528 12.3241 60.0744 13.7957C61.9191 15.2672 63.0259 17.5358 63.0259 20.7241C63.0259 24.0964 61.8576 26.6103 60.0744 28.2044C58.1683 29.9212 55.2168 30.7796 51.5275 30.7796C49.4984 30.7796 48.0227 30.657 46.8544 30.5344V11.9563H46.9159ZM50.3592 27.8979C50.8511 27.9592 51.589 27.9592 52.2654 27.9592C56.754 27.9592 59.3981 25.5066 59.3981 20.7855C59.3981 16.6161 57 14.2249 52.6958 14.2249C51.589 14.2249 50.7896 14.2862 50.3592 14.4088V27.8979V27.8979Z" fill="#00803D"/>
<path d="M69.4207 11.7109V30.5343H65.9774V11.7109H69.4207Z" fill="#00803D"/>
<path d="M88.4207 29.676C87.1909 30.1052 84.8544 30.7183 82.3333 30.7183C79.1359 30.7183 76.7379 29.9213 74.9547 28.2045C73.2945 26.6103 72.3107 24.1578 72.3107 21.276C72.3107 15.3286 76.5534 11.5271 82.8252 11.5271C85.1618 11.5271 86.945 12.0176 87.8058 12.4468L87.068 15.2059C86.0227 14.7767 84.7929 14.4089 82.7638 14.4089C78.7055 14.4089 75.877 16.8001 75.877 21.1534C75.877 25.4453 78.521 27.9592 82.4563 27.9592C83.6861 27.9592 84.6084 27.7753 85.0388 27.5913V22.9315H81.7799V20.2337H88.4207V29.676Z" fill="#00803D"/>
<path d="M95.3689 11.7109V30.5343H91.9256V11.7109H95.3689Z" fill="#00803D"/>
<path d="M102.871 14.5927H97.521V11.7109H111.786V14.5927H106.375V30.5343H102.932V14.5927H102.871Z" fill="#00803D"/>
<path d="M117.689 25.2L116.091 30.5343H112.524L118.55 11.7109H122.916L129.065 30.5343H125.375L123.654 25.2H117.689V25.2ZM123.1 22.5635L121.625 17.9036C121.256 16.7387 120.948 15.4511 120.702 14.4087H120.641C120.333 15.5124 120.087 16.8 119.718 17.9036L118.243 22.5635H123.1Z" fill="#00803D"/>
<path d="M131.647 11.7109H135.091V27.6525H142.838V30.5343H131.647V11.7109Z" fill="#00803D"/>
<path d="M151.139 11.9563C152.246 11.711 154.214 11.5884 156.181 11.5884C158.702 11.5884 160.301 11.8949 161.592 12.8147C162.76 13.4891 163.56 14.7154 163.56 16.3095C163.56 18.0263 162.453 19.6205 160.424 20.3563V20.4176C162.392 20.9081 164.236 22.5022 164.236 25.0774C164.236 26.7329 163.498 28.0818 162.392 28.9402C161.039 30.1052 158.825 30.7183 155.382 30.7183C153.476 30.7183 152 30.5957 151.139 30.473V11.9563V11.9563ZM154.521 19.3752H156.304C158.702 19.3752 160.055 18.2716 160.055 16.6774C160.055 14.8993 158.702 14.1022 156.55 14.1022C155.566 14.1022 154.951 14.1636 154.583 14.2249V19.3752H154.521ZM154.521 28.0205C154.951 28.0818 155.566 28.0818 156.366 28.0818C158.579 28.0818 160.547 27.2234 160.547 24.9548C160.547 22.7475 158.641 21.8891 156.243 21.8891H154.521V28.0205Z" fill="#00803D"/>
<path d="M171 25.2L169.401 30.5343H165.835L171.861 11.7109H176.227L182.375 30.5343H178.686L176.964 25.2H171V25.2ZM176.411 22.5635L174.935 17.9036C174.566 16.7387 174.259 15.4511 174.013 14.4087H173.951C173.644 15.5124 173.398 16.8 173.029 17.9036L171.553 22.5635H176.411Z" fill="#00803D"/>
<path d="M188.401 11.7109V30.5343H184.958V11.7109H188.401Z" fill="#00803D"/>
<path d="M195.903 14.5927H190.553V11.7109H204.757V14.5927H199.346V30.5343H195.903V14.5927V14.5927Z" fill="#00803D"/>
<path d="M217.485 22.1343H210.353V27.6525H218.285V30.473H206.909V11.7109H217.854V14.5314H210.353V19.3752H217.485V22.1343Z" fill="#00803D"/>
<path d="M221.298 11.9563C222.589 11.711 224.495 11.5884 226.524 11.5884C229.23 11.5884 231.074 12.0176 232.366 13.1212C233.411 13.9796 233.964 15.3285 233.964 16.8614C233.964 19.3139 232.304 20.9081 230.521 21.5825V21.6439C231.874 22.1344 232.673 23.4833 233.165 25.2614C233.78 27.5913 234.272 29.7986 234.641 30.5344H231.074C230.767 29.9825 230.337 28.4497 229.845 26.1198C229.291 23.6672 228.43 22.8701 226.463 22.8088H224.741V30.5344H221.298V11.9563V11.9563ZM224.741 20.2949H226.77C229.107 20.2949 230.521 19.0687 230.521 17.1679C230.521 15.0833 229.045 14.1636 226.832 14.1636C225.725 14.1636 225.049 14.2249 224.68 14.3475V20.2949H224.741Z" fill="#00803D"/>
<path d="M247.738 22.1343H240.605V27.6525H248.537V30.473H237.162V11.7109H248.107V14.5314H240.605V19.3752H247.738V22.1343Z" fill="#00803D"/>
<path d="M251.55 11.7109H254.994V20.3562H255.055C255.485 19.6204 255.977 18.946 256.408 18.3328L261.327 11.7109H265.57L259.052 19.7431L265.939 30.5343H261.88L256.531 21.889L254.871 23.9124V30.5343H251.427V11.7109H251.55Z" fill="#00803D"/>
</svg>
